<svg xmlns="http://www.w3.org/2000/svg" xmlns:xlink="http://www.w3.org/1999/xlink" viewBox="0 0 566.93 566.93"><defs><style>.\33 e581e0d-abed-4533-8f99-2b677a37c1b1{isolation:isolate;}.\38 19ae45b-dd7f-4d32-9000-7c0a3c004193{mix-blend-mode:multiply;}.d52e119b-8ffb-41c2-8368-611bc04f529b{fill:#25232b;}.de19f284-96f7-4f31-b810-a3cede83614b{fill:url(#b7595bf8-9c2c-4071-9890-920a5d21e72d);}.\33 a6461c9-0dc4-44c6-99d7-8cf969192e30{fill:url(#9112ec15-d364-4adf-a236-49d4980d439b);}.\32 701b22b-4220-41bf-839b-fcbe56d46f4f{opacity:0.77;}.\36 d5c0cdd-f3ca-492e-8e83-df8bf8106334{fill:url(#5602c866-c100-4850-85da-1f156af07309);}.\34 056ec44-107a-446b-9a67-fd7783323e42{fill:url(#17fbabdb-fa30-4d56-a459-2f563f10f340);}.\32 1e78e3b-4c64-49b4-82ec-4d4756296858,.\38 041289a-01de-4984-99c9-bdeddb44cf8d{opacity:0.76;}.\33 0eabef0-47ce-4ed1-8a48-1d2af44b963f{fill:url(#76a7ff14-3a39-4689-8d59-4b1033607500);}.b691cdfe-284e-462b-aeb0-557b1e200341{fill:url(#98c8050c-3c99-4e14-ac0a-c783cc483369);}.\30 003756d-6db1-49c5-a182-3c5ab547b01a{fill:url(#c22b498d-f648-4407-94a0-1ff631793166);}.e8bd5ba1-d0d7-4ee3-a282-d528a34b7ef6{fill:url(#cfb7ac33-259b-4565-a665-c8b81c631428);}.df25f15c-6942-44dd-88b1-362ec1429799{opacity:0.78;}.\37 00c670d-4136-45ac-bf14-646cbc425e2c{fill:url(#58334a16-a1a7-4391-bea1-baa73295cb19);}.\30 0aa7e27-3604-4d90-bdd5-a1c1c0de917e{fill:url(#04d9d163-cc89-4867-bfdb-9329ad8e3015);}.\32 1e31365-a317-4e9f-8c5e-99e6bcc08a7f{fill:url(#1fcce17f-045f-4a14-a10b-8d9cd837afe7);}.\30 92eebf6-276d-4187-836a-2234326b6f79{fill:url(#739f9d10-1a12-41a3-aa8c-3a2312418866);}.\36 1852188-c5a2-4d7a-a030-6db52b8d1377{fill:url(#ddd6ffda-bef3-46ca-9ecc-a26fdca6cd19);}.\36 f94df23-1fb1-49ae-8378-8c32ecdfe6b0{opacity:0.61;}.\32 1e78e3b-4c64-49b4-82ec-4d4756296858,.\36 f94df23-1fb1-49ae-8378-8c32ecdfe6b0,.fc6785cc-8bdc-4320-91cf-929c194d0f78{mix-blend-mode:darken;}.\32 052211a-f1b8-43e0-b76a-0f356a8e2973{fill:url(#019eb5ea-005d-4043-8105-d4a437aa6c02);}.fc6785cc-8bdc-4320-91cf-929c194d0f78{opacity:0.48;}.c9cbee10-2b4c-417d-a6bb-5f85a1b0a8ef{fill:url(#ce4b7238-808c-471d-84ce-af2bcbfbf3f6);}.d6ef3274-0749-4ac0-a269-617883e72a53{fill:url(#94c4d444-15c3-4b6e-8952-61878c1347e3);}.d8efab0f-3990-497b-a73d-ca765af58e60{fill:url(#fa4fbca4-6cae-479f-b66f-97835854831f);}.\32 7f0e0a9-4b31-496d-ac66-3c3c66e61fa5{opacity:0.45;}.\34 7866454-131c-4c78-bc37-d8e130d9e01f{fill:url(#c22b5eee-b559-4312-9b57-343e649cab3d);}.\39 10a897d-6389-4d02-a5f1-ae358d88a79d{opacity:0.3;}.\37 2b86c58-f9ae-4787-835c-f19cc2dbb5c0{fill:url(#8d7a1e37-f8c4-4233-90be-044844128712);}.e1ba7594-fb0d-4ff0-a34d-ce2ca8145b5e{fill:url(#cd397cd1-d3f1-4944-966d-761c6c13a03e);}.\37 70d99b9-77a2-4dc7-b3aa-db80f0792cbd{fill:url(#b9d8aa83-720b-4773-bb7a-16f141cd22cd);}.debb3611-2d97-4acc-b602-bf4e1880e2fe{fill:url(#c0cb9c5a-d745-4645-b5a0-f51618158283);}.\39 29817fb-7899-4d6a-9417-dd37180f42fd{fill:url(#f6557cba-d12b-466c-bc83-fd338b12e7ed);}.f3b5bdd7-a210-440d-a97c-c532a402fd28{fill:url(#41613d47-9a55-4bc6-bc40-564532fb5a05);}.\36 33da08c-7892-4afa-9398-2c17bfd763fa{fill:url(#4307860a-b3bb-442a-a0a3-572e593ba604);}.\38 9c5a837-58fc-452d-aadf-e9e487b7942e{opacity:0.86;fill:url(#e6d8653f-ca5f-40f0-b90f-ccfa33e259c8);}.bdffb991-5834-4d16-85f9-caaa9db9ac72{fill:url(#f6d503cf-e89e-4704-ade9-219ca6165964);}.e8c1b5f6-295b-4493-91fc-d46589b30718{fill:url(#63e6a7ab-3573-4433-8be7-202eb9432404);}</style><linearGradient id="b7595bf8-9c2c-4071-9890-920a5d21e72d" x1="189.83" y1="290.43" x2="470.59" y2="290.43" gradientUnits="userSpaceOnUse"><stop offset="0" stop-color="#28262d"/><stop offset="1"/></linearGradient><linearGradient id="9112ec15-d364-4adf-a236-49d4980d439b" x1="189.83" y1="290.43" x2="470.59" y2="290.43" gradientUnits="userSpaceOnUse"><stop offset="0" stop-color="#262537"/><stop offset="1"/></linearGradient><radialGradient id="5602c866-c100-4850-85da-1f156af07309" cx="279.77" cy="331.02" r="139.56" gradientUnits="userSpaceOnUse"><stop offset="0.21"/><stop offset="0.89" stop-color="#272636" stop-opacity="0"/></radialGradient><radialGradient id="17fbabdb-fa30-4d56-a459-2f563f10f340" cx="210.38" cy="200.9" r="59.12" gradientUnits="userSpaceOnUse"><stop offset="0" stop-color="#16151f"/><stop offset="0.43" stop-color="#1c1b24" stop-opacity="0.91"/><stop offset="0.71" stop-color="#313036" stop-opacity="0.63"/><stop offset="0.94" stop-color="#535354" stop-opacity="0.15"/><stop offset="1" stop-color="#5e5e5e" stop-opacity="0"/></radialGradient><radialGradient id="76a7ff14-3a39-4689-8d59-4b1033607500" cx="428.86" cy="371.95" r="40.28" xlink:href="#17fbabdb-fa30-4d56-a459-2f563f10f340"/><linearGradient id="98c8050c-3c99-4e14-ac0a-c783cc483369" x1="387.12" y1="371.95" x2="470.59" y2="371.95" xlink:href="#b7595bf8-9c2c-4071-9890-920a5d21e72d"/><radialGradient id="c22b498d-f648-4407-94a0-1ff631793166" cx="420.42" cy="370.22" r="39.03" xlink:href="#17fbabdb-fa30-4d56-a459-2f563f10f340"/><linearGradient id="cfb7ac33-259b-4565-a665-c8b81c631428" x1="379.95" y1="370.22" x2="460.9" y2="370.22" xlink:href="#b7595bf8-9c2c-4071-9890-920a5d21e72d"/><radialGradient id="58334a16-a1a7-4391-bea1-baa73295cb19" cx="410.81" cy="368.95" r="38.9" xlink:href="#17fbabdb-fa30-4d56-a459-2f563f10f340"/><linearGradient id="04d9d163-cc89-4867-bfdb-9329ad8e3015" x1="370.34" y1="368.95" x2="451.29" y2="368.95" xlink:href="#b7595bf8-9c2c-4071-9890-920a5d21e72d"/><linearGradient id="1fcce17f-045f-4a14-a10b-8d9cd837afe7" x1="186.93" y1="190.15" x2="201.36" y2="167.58" gradientUnits="userSpaceOnUse"><stop offset="0" stop-color="#ffff96"/><stop offset="0.47" stop-color="#ffff96"/><stop offset="0.55" stop-color="#fff98e"/><stop offset="0.67" stop-color="#ffe979"/><stop offset="0.81" stop-color="#fecf57"/><stop offset="0.98" stop-color="#feab28"/><stop offset="1" stop-color="#fea621"/></linearGradient><linearGradient id="739f9d10-1a12-41a3-aa8c-3a2312418866" x1="193.68" y1="179.79" x2="197.21" y2="171.8" gradientUnits="userSpaceOnUse"><stop offset="0" stop-color="#cba06b"/><stop offset="0.09" stop-color="#cca16c" stop-opacity="0.99"/><stop offset="0.16" stop-color="#cea66e" stop-opacity="0.94"/><stop offset="0.22" stop-color="#d2ad71" stop-opacity="0.86"/><stop offset="0.28" stop-color="#d8b776" stop-opacity="0.75"/><stop offset="0.33" stop-color="#dfc57c" stop-opacity="0.61"/><stop offset="0.38" stop-color="#e8d583" stop-opacity="0.44"/><stop offset="0.42" stop-color="#f3e98c" stop-opacity="0.24"/><stop offset="0.47" stop-color="#ffff96" stop-opacity="0"/><stop offset="0.47" stop-color="#ffff96" stop-opacity="0"/><stop offset="1" stop-color="#fea621" stop-opacity="0"/></linearGradient><linearGradient id="ddd6ffda-bef3-46ca-9ecc-a26fdca6cd19" x1="195.82" y1="165.47" x2="194.73" y2="187.9" gradientUnits="userSpaceOnUse"><stop offset="0" stop-color="#d9d980"/><stop offset="0.08" stop-color="#dcdc82"/><stop offset="0.12" stop-color="#e3e386"/><stop offset="0.34" stop-color="#e4e183"/><stop offset="0.51" stop-color="#e6db79"/><stop offset="0.66" stop-color="#ebd169"/><stop offset="0.8" stop-color="#f1c352"/><stop offset="0.93" stop-color="#f9b134"/><stop offset="1" stop-color="#fea621"/></linearGradient><linearGradient id="019eb5ea-005d-4043-8105-d4a437aa6c02" x1="192.64" y1="215.72" x2="387.29" y2="337.82" gradientUnits="userSpaceOnUse"><stop offset="0" stop-color="#2b2a3e"/><stop offset="0.11" stop-color="#242430"/><stop offset="0.28" stop-color="#1e1e24"/><stop offset="0.51" stop-color="#1b1b1c"/><stop offset="1" stop-color="#1a1a1a"/></linearGradient><radialGradient id="ce4b7238-808c-471d-84ce-af2bcbfbf3f6" cx="317.85" cy="298.83" fx="407.7160830469116" fy="341.7341512304674" r="128" gradientUnits="userSpaceOnUse"><stop offset="0" stop-color="#16151f"/><stop offset="0.47" stop-color="#1b1b24" stop-opacity="0.92"/><stop offset="0.72" stop-color="#2e2d34" stop-opacity="0.67"/><stop offset="0.93" stop-color="#4e4d50" stop-opacity="0.23"/><stop offset="1" stop-color="#5e5e5e" stop-opacity="0"/></radialGradient><radialGradient id="94c4d444-15c3-4b6e-8952-61878c1347e3" cx="320.95" cy="278.83" fx="380.51596516168405" fy="307.2717854390082" r="84.85" gradientUnits="userSpaceOnUse"><stop offset="0" stop-color="#16151f"/><stop offset="0.43" stop-color="#1a1922" stop-opacity="0.91"/><stop offset="0.71" stop-color="#25252b" stop-opacity="0.63"/><stop offset="0.94" stop-color="#3a393b" stop-opacity="0.15"/><stop offset="1" stop-color="#404040" stop-opacity="0"/></radialGradient><radialGradient id="fa4fbca4-6cae-479f-b66f-97835854831f" cx="877.78" cy="304.35" fx="937.3509468510172" fy="332.7910140392747" r="84.85" gradientTransform="translate(-344.27 41.69) scale(0.74 0.72)" xlink:href="#94c4d444-15c3-4b6e-8952-61878c1347e3"/><radialGradient id="c22b5eee-b559-4312-9b57-343e649cab3d" cx="1092.28" cy="358.41" fx="1151.839366029026" fy="386.84773812616504" r="84.84" gradientTransform="translate(-449.01 65.63) scale(0.67 0.61)" xlink:href="#94c4d444-15c3-4b6e-8952-61878c1347e3"/><radialGradient id="8d7a1e37-f8c4-4233-90be-044844128712" cx="807.44" cy="339.84" fx="863.2080274650772" fy="366.46798840151627" r="79.44" gradientTransform="translate(-344.27 41.69) scale(0.74 0.72)" xlink:href="#94c4d444-15c3-4b6e-8952-61878c1347e3"/><radialGradient id="cd397cd1-d3f1-4944-966d-761c6c13a03e" cx="2537.02" cy="520.52" fx="2592.791101423602" fy="547.1526668587406" r="79.44" gradientTransform="translate(-714.37 112.9) scale(0.43 0.45)" xlink:href="#94c4d444-15c3-4b6e-8952-61878c1347e3"/><radialGradient id="b9d8aa83-720b-4773-bb7a-16f141cd22cd" cx="3428.84" cy="530.91" fx="3484.6086473979644" fy="557.5439032646914" r="79.44" gradientTransform="translate(-810.34 125.44) scale(0.35 0.41)" xlink:href="#94c4d444-15c3-4b6e-8952-61878c1347e3"/><radialGradient id="c0cb9c5a-d745-4645-b5a0-f51618158283" cx="317.86" cy="287.62" fx="389.88904773210294" fy="322.0097403154766" r="102.6" gradientUnits="userSpaceOnUse"><stop offset="0" stop-color="#16151f"/><stop offset="0.43" stop-color="#191821" stop-opacity="0.91"/><stop offset="0.71" stop-color="#222127" stop-opacity="0.63"/><stop offset="0.94" stop-color="#313132" stop-opacity="0.15"/><stop offset="1" stop-color="#363636" stop-opacity="0"/></radialGradient><radialGradient id="f6557cba-d12b-466c-bc83-fd338b12e7ed" cx="228.08" cy="187.56" r="6.08" gradientUnits="userSpaceOnUse"><stop offset="0" stop-color="#ac8b5f"/><stop offset="0.4" stop-color="#aa895e"/><stop offset="0.55" stop-color="#a3845a"/><stop offset="0.65" stop-color="#987a54"/><stop offset="0.74" stop-color="#876d4a"/><stop offset="0.81" stop-color="#715b3e"/><stop offset="0.87" stop-color="#55452f"/><stop offset="0.93" stop-color="#352b1d"/><stop offset="0.98" stop-color="#110e09"/><stop offset="1"/></radialGradient><radialGradient id="41613d47-9a55-4bc6-bc40-564532fb5a05" cx="228.15" cy="187.42" r="4.78" gradientUnits="userSpaceOnUse"><stop offset="0" stop-color="#48230c"/><stop offset="0.48" stop-color="#46220c"/><stop offset="0.65" stop-color="#3f1f0b"/><stop offset="0.78" stop-color="#341909"/><stop offset="0.88" stop-color="#231106"/><stop offset="0.96" stop-color="#0d0602"/><stop offset="1"/></radialGradient><radialGradient id="4307860a-b3bb-442a-a0a3-572e593ba604" cx="229.86" cy="185.72" r="1.54" gradientUnits="userSpaceOnUse"><stop offset="0" stop-color="#fff"/><stop offset="0.32" stop-color="#fdfdfd" stop-opacity="0.99"/><stop offset="0.46" stop-color="#f8f8f8" stop-opacity="0.96"/><stop offset="0.56" stop-color="#efefef" stop-opacity="0.92"/><stop offset="0.65" stop-color="#e1e1e1" stop-opacity="0.85"/><stop offset="0.72" stop-color="#d0d0d0" stop-opacity="0.75"/><stop offset="0.79" stop-color="#bbb" stop-opacity="0.64"/><stop offset="0.85" stop-color="#a1a1a1" stop-opacity="0.51"/><stop offset="0.9" stop-color="#848484" stop-opacity="0.36"/><stop offset="0.95" stop-color="#646464" stop-opacity="0.19"/><stop offset="1" stop-color="#404040" stop-opacity="0"/></radialGradient><radialGradient id="e6d8653f-ca5f-40f0-b90f-ccfa33e259c8" cx="282.54" cy="400.99" fx="252.1157927982131" fy="413.8136331761843" r="84.2" gradientUnits="userSpaceOnUse"><stop offset="0" stop-color="#c78260"/><stop offset="0.23" stop-color="#c68160" stop-opacity="0.99"/><stop offset="0.37" stop-color="#c17f5e" stop-opacity="0.94"/><stop offset="0.5" stop-color="#b97b5b" stop-opacity="0.87"/><stop offset="0.61" stop-color="#ae7557" stop-opacity="0.76"/><stop offset="0.71" stop-color="#a06d52" stop-opacity="0.62"/><stop offset="0.81" stop-color="#8f644c" stop-opacity="0.46"/><stop offset="0.9" stop-color="#7a5944" stop-opacity="0.25"/><stop offset="0.99" stop-color="#634d3c" stop-opacity="0.03"/><stop offset="1" stop-color="#604b3b" stop-opacity="0"/></radialGradient><linearGradient id="f6d503cf-e89e-4704-ade9-219ca6165964" x1="262.29" y1="379" x2="294.19" y2="344.95" gradientUnits="userSpaceOnUse"><stop offset="0" stop-color="#2d2942"/><stop offset="0.25" stop-color="#1a1826"/><stop offset="0.51" stop-color="#0c0b11"/><stop offset="0.76" stop-color="#030304"/><stop offset="1"/></linearGradient><linearGradient id="63e6a7ab-3573-4433-8be7-202eb9432404" x1="285.96" y1="370.41" x2="314.8" y2="339.64" xlink:href="#f6d503cf-e89e-4704-ade9-219ca6165964"/></defs><title>birds</title><g class="3e581e0d-abed-4533-8f99-2b677a37c1b1"><g id="1a2c6fc6-466d-42e6-bb0e-aac481d1e654" data-name="Amsel"><g class="819ae45b-dd7f-4d32-9000-7c0a3c004193"><path class="d52e119b-8ffb-41c2-8368-611bc04f529b" d="M190.26,182.74s-.08.7.42.81c1.63.38,5.3,2,6.68,9.39,1.81,9.58,2.17,17.35,0,24.58s-8.11,15-7.48,25.66,3.67,35.64,16.16,44.46a35.7,35.7,0,0,1,8.85,9.22s26.39,28,45.18,31.63,37.23,9.76,48.08,7.95,12.53-2.7,17.35-1.81c10.56,1.95,18.25,2.71,30.36,9.58a130.28,130.28,0,0,0,23.31,10.3s68.14,52.6,69.4,53.31c2.53,1.45,3.43,0,3.43,0s3.26,3.08,5.24,2.9-.9-3.62-.9-3.62,3.25,1.81,5.42,1.81,4.16.54,5.06.36,3.26,1.45,3.26,1.45c1.62-1.81-1.09-4.7-1.09-4.7s3.43.36,0-2.53S403.57,348,403.57,348s-11-14.27-11.57-14.81,2.71-.19,1.81-.91-9.58-6.69-9.58-6.69a54.83,54.83,0,0,0-3.07-5.42c-1.09-1.44,10.66,4.34,10.66,4.34s12.47,7.41,12.47,5.6S386.4,316,386.4,316s-6-6.69-11-10.12-4-5.43-5.06-5.61-2.86-8.07-12.47-15.9c-7.3-5.94-9.22-12.29-24.76-23.31S299.47,227.64,282.3,221s-26.92-28.56-26.92-28.56-7-18.25-29.82-21.32-25.38,2.3-25.38,2.3Z"/><path class="de19f284-96f7-4f31-b810-a3cede83614b" d="M190.26,182.74s-.08.7.42.81c1.63.38,5.3,2,6.68,9.39,1.81,9.58,2.17,17.35,0,24.58s-8.11,15-7.48,25.66,3.67,35.64,16.16,44.46a35.7,35.7,0,0,1,8.85,9.22s26.39,28,45.18,31.63,37.23,9.76,48.08,7.95,12.53-2.7,17.35-1.81c10.56,1.95,18.25,2.71,30.36,9.58a130.28,130.28,0,0,0,23.31,10.3s68.14,52.6,69.4,53.31c2.53,1.45,3.43,0,3.43,0s3.26,3.08,5.24,2.9-.9-3.62-.9-3.62,3.25,1.81,5.42,1.81,4.16.54,5.06.36,3.26,1.45,3.26,1.45c1.62-1.81-1.09-4.7-1.09-4.7s3.43.36,0-2.53S403.57,348,403.57,348s-11-14.27-11.57-14.81,2.71-.19,1.81-.91-9.58-6.69-9.58-6.69a54.83,54.83,0,0,0-3.07-5.42c-1.09-1.44,10.66,4.34,10.66,4.34s12.47,7.41,12.47,5.6S386.4,316,386.4,316s-6-6.69-11-10.12-4-5.43-5.06-5.61-2.86-8.07-12.47-15.9c-7.3-5.94-9.22-12.29-24.76-23.31S299.47,227.64,282.3,221s-26.92-28.56-26.92-28.56-7-18.25-29.82-21.32-25.38,2.3-25.38,2.3Z"/></g><g class="819ae45b-dd7f-4d32-9000-7c0a3c004193"><path class="d52e119b-8ffb-41c2-8368-611bc04f529b" d="M214.89,296.86s26.39,28,45.18,31.63,37.23,9.76,48.08,7.95,12.53-2.7,17.35-1.81c10.56,1.95,18.25,2.71,30.36,9.58a130.28,130.28,0,0,0,23.31,10.3s68.14,52.6,69.4,53.31c2.53,1.45,3.43,0,3.43,0s3.26,3.08,5.24,2.9-.9-3.62-.9-3.62,3.25,1.81,5.42,1.81,4.16.54,5.06.36,3.26,1.45,3.26,1.45c1.62-1.81-1.09-4.7-1.09-4.7s3.43.36,0-2.53S403.57,348,403.57,348s-11-14.27-11.57-14.81,2.71-.19,1.81-.91-9.58-6.69-9.58-6.69a54.83,54.83,0,0,0-3.07-5.42c-1.09-1.44,10.66,4.34,10.66,4.34s12.47,7.41,12.47,5.6S386.4,316,386.4,316s-6-6.69-11-10.12-4-5.43-5.06-5.61-2.86-8.07-12.47-15.9c-7.3-5.94-9.22-12.29-24.76-23.31S299.47,227.64,282.3,221s-26.92-28.56-26.92-28.56-7-18.25-29.82-21.32-25.38,2.3-25.38,2.3l-9.92,9.36s-.08.7.42.81c1.63.38,5.3,2,6.68,9.39,1.81,9.58,2.17,17.35,0,24.58s-8.11,15-7.48,25.66,3.67,35.64,16.16,44.46"/><path class="3a6461c9-0dc4-44c6-99d7-8cf969192e30" d="M214.89,296.86s26.39,28,45.18,31.63,37.23,9.76,48.08,7.95,12.53-2.7,17.35-1.81c10.56,1.95,18.25,2.71,30.36,9.58a130.28,130.28,0,0,0,23.31,10.3s68.14,52.6,69.4,53.31c2.53,1.45,3.43,0,3.43,0s3.26,3.08,5.24,2.9-.9-3.62-.9-3.62,3.25,1.81,5.42,1.81,4.16.54,5.06.36,3.26,1.45,3.26,1.45c1.62-1.81-1.09-4.7-1.09-4.7s3.43.36,0-2.53S403.57,348,403.57,348s-11-14.27-11.57-14.81,2.71-.19,1.81-.91-9.58-6.69-9.58-6.69a54.83,54.83,0,0,0-3.07-5.42c-1.09-1.44,10.66,4.34,10.66,4.34s12.47,7.41,12.47,5.6S386.4,316,386.4,316s-6-6.69-11-10.12-4-5.43-5.06-5.61-2.86-8.07-12.47-15.9c-7.3-5.94-9.22-12.29-24.76-23.31S299.47,227.64,282.3,221s-26.92-28.56-26.92-28.56-7-18.25-29.82-21.32-25.38,2.3-25.38,2.3l-9.92,9.36s-.08.7.42.81c1.63.38,5.3,2,6.68,9.39,1.81,9.58,2.17,17.35,0,24.58s-8.11,15-7.48,25.66,3.67,35.64,16.16,44.46"/></g><g class="2701b22b-4220-41bf-839b-fcbe56d46f4f"><path class="d52e119b-8ffb-41c2-8368-611bc04f529b" d="M214.89,296.86s26.39,28,45.18,31.63,37.23,9.76,48.08,7.95,12.53-2.7,17.35-1.81c10.56,1.95,18.25,2.71,30.36,9.58a130.28,130.28,0,0,0,23.31,10.3s68.14,52.6,69.4,53.31c2.53,1.45,3.43,0,3.43,0s3.26,3.08,5.24,2.9-.9-3.62-.9-3.62,3.25,1.81,5.42,1.81,4.16.54,5.06.36,3.26,1.45,3.26,1.45c1.62-1.81-1.09-4.7-1.09-4.7s3.43.36,0-2.53S403.57,348,403.57,348s-11-14.27-11.57-14.81,2.71-.19,1.81-.91-9.58-6.69-9.58-6.69a54.83,54.83,0,0,0-3.07-5.42c-1.09-1.44,10.66,4.34,10.66,4.34s12.47,7.41,12.47,5.6S386.4,316,386.4,316s-6-6.69-11-10.12-4-5.43-5.06-5.61-2.86-8.07-12.47-15.9c-7.3-5.94-9.22-12.29-24.76-23.31S299.47,227.64,282.3,221s-26.92-28.56-26.92-28.56-7-18.25-29.82-21.32-25.38,2.3-25.38,2.3l-9.92,9.36s-.08.7.42.81c1.63.38,5.3,2,6.68,9.39,1.81,9.58,2.17,17.35,0,24.58s-8.11,15-7.48,25.66,3.67,35.64,16.16,44.46"/><path class="6d5c0cdd-f3ca-492e-8e83-df8bf8106334" d="M214.89,296.86s26.39,28,45.18,31.63,37.23,9.76,48.08,7.95,12.53-2.7,17.35-1.81c10.56,1.95,18.25,2.71,30.36,9.58a130.28,130.28,0,0,0,23.31,10.3s68.14,52.6,69.4,53.31c2.53,1.45,3.43,0,3.43,0s3.26,3.08,5.24,2.9-.9-3.62-.9-3.62,3.25,1.81,5.42,1.81,4.16.54,5.06.36,3.26,1.45,3.26,1.45c1.62-1.81-1.09-4.7-1.09-4.7s3.43.36,0-2.53S403.57,348,403.57,348s-11-14.27-11.57-14.81,2.71-.19,1.81-.91-9.58-6.69-9.58-6.69a54.83,54.83,0,0,0-3.07-5.42c-1.09-1.44,10.66,4.34,10.66,4.34s12.47,7.41,12.47,5.6S386.4,316,386.4,316s-6-6.69-11-10.12-4-5.43-5.06-5.61-2.86-8.07-12.47-15.9c-7.3-5.94-9.22-12.29-24.76-23.31S299.47,227.64,282.3,221s-26.92-28.56-26.92-28.56-7-18.25-29.82-21.32-25.38,2.3-25.38,2.3l-9.92,9.36s-.08.7.42.81c1.63.38,5.3,2,6.68,9.39,1.81,9.58,2.17,17.35,0,24.58s-8.11,15-7.48,25.66,3.67,35.64,16.16,44.46"/></g><g class="2701b22b-4220-41bf-839b-fcbe56d46f4f"><path class="4056ec44-107a-446b-9a67-fd7783323e42" d="M214.89,296.86s26.39,28,45.18,31.63,37.23,9.76,48.08,7.95,12.53-2.7,17.35-1.81c10.56,1.95,18.25,2.71,30.36,9.58a130.28,130.28,0,0,0,23.31,10.3s68.14,52.6,69.4,53.31c2.53,1.45,3.43,0,3.43,0s3.26,3.08,5.24,2.9-.9-3.62-.9-3.62,3.25,1.81,5.42,1.81,4.16.54,5.06.36,3.26,1.45,3.26,1.45c1.62-1.81-1.09-4.7-1.09-4.7s3.43.36,0-2.53S403.57,348,403.57,348s-11-14.27-11.57-14.81,2.71-.19,1.81-.91-9.58-6.69-9.58-6.69a54.83,54.83,0,0,0-3.07-5.42c-1.09-1.44,10.66,4.34,10.66,4.34s12.47,7.41,12.47,5.6S386.4,316,386.4,316s-6-6.69-11-10.12-4-5.43-5.06-5.61-2.86-8.07-12.47-15.9c-7.3-5.94-9.22-12.29-24.76-23.31S299.47,227.64,282.3,221s-26.92-28.56-26.92-28.56-7-18.25-29.82-21.32-25.38,2.3-25.38,2.3l-10.35,8.86s.35,1.2.85,1.31c1.63.38,5.3,2,6.68,9.39,1.81,9.58,2.17,17.35,0,24.58s-8.11,15-7.48,25.66,3.67,35.64,16.16,44.46"/><path class="6d5c0cdd-f3ca-492e-8e83-df8bf8106334" d="M214.89,296.86s26.39,28,45.18,31.63,37.23,9.76,48.08,7.95,12.53-2.7,17.35-1.81c10.56,1.95,18.25,2.71,30.36,9.58a130.28,130.28,0,0,0,23.31,10.3s68.14,52.6,69.4,53.31c2.53,1.45,3.43,0,3.43,0s3.26,3.08,5.24,2.9-.9-3.62-.9-3.62,3.25,1.81,5.42,1.81,4.16.54,5.06.36,3.26,1.45,3.26,1.45c1.62-1.81-1.09-4.7-1.09-4.7s3.43.36,0-2.53S403.57,348,403.57,348s-11-14.27-11.57-14.81,2.71-.19,1.81-.91-9.58-6.69-9.58-6.69a54.83,54.83,0,0,0-3.07-5.42c-1.09-1.44,10.66,4.34,10.66,4.34s12.47,7.41,12.47,5.6S386.4,316,386.4,316s-6-6.69-11-10.12-4-5.43-5.06-5.61-2.86-8.07-12.47-15.9c-7.3-5.94-9.22-12.29-24.76-23.31S299.47,227.64,282.3,221s-26.92-28.56-26.92-28.56-7-18.25-29.82-21.32-25.38,2.3-25.38,2.3l-10.35,8.86s.35,1.2.85,1.31c1.63.38,5.3,2,6.68,9.39,1.81,9.58,2.17,17.35,0,24.58s-8.11,15-7.48,25.66,3.67,35.64,16.16,44.46"/></g><g class="8041289a-01de-4984-99c9-bdeddb44cf8d"><path class="30eabef0-47ce-4ed1-8a48-1d2af44b963f" d="M392,333.19c-2,4.87-4.88,11.74-4.88,11.74s78.8,64.52,79.7,64.34,3.26,1.45,3.26,1.45c1.62-1.81-1.09-4.7-1.09-4.7s3.43.36,0-2.53S403.57,348,403.57,348s-11-14.27-11.57-14.81"/><path class="b691cdfe-284e-462b-aeb0-557b1e200341" d="M392,333.19c-2,4.87-4.88,11.74-4.88,11.74s78.8,64.52,79.7,64.34,3.26,1.45,3.26,1.45c1.62-1.81-1.09-4.7-1.09-4.7s3.43.36,0-2.53S403.57,348,403.57,348s-11-14.27-11.57-14.81"/></g><g class="8041289a-01de-4984-99c9-bdeddb44cf8d"><path class="0003756d-6db1-49c5-a182-3c5ab547b01a" d="M382.51,333.19c-.9-.78-1.15-.67-1.65.53a12,12,0,0,0,3.49,13.89c19.25,15.74,72,58.83,72.78,58.68.9-.18,3.25,1.45,3.25,1.45,1.63-1.81-1.08-4.71-1.08-4.71l-64.62-57.29a12.07,12.07,0,0,1-1.46-1.57c-2.39-3.08-10.24-10.52-10.71-11"/><path class="e8bd5ba1-d0d7-4ee3-a282-d528a34b7ef6" d="M382.51,333.19c-.9-.78-1.15-.67-1.65.53a12,12,0,0,0,3.49,13.89c19.25,15.74,72,58.83,72.78,58.68.9-.18,3.25,1.45,3.25,1.45,1.63-1.81-1.08-4.71-1.08-4.71l-64.62-57.29a12.07,12.07,0,0,1-1.46-1.57c-2.39-3.08-10.24-10.52-10.71-11"/></g><g class="df25f15c-6942-44dd-88b1-362ec1429799"><path class="700c670d-4136-45ac-bf14-646cbc425e2c" d="M373.84,333.19c-.81-.89-2.09-2.21-2.59-1a12,12,0,0,0,3.49,13.89c19.25,15.74,72,58.82,72.78,58.68.9-.18,3.25,1.45,3.25,1.45,1.63-1.81-1.08-4.71-1.08-4.71L385.08,344.2a11.49,11.49,0,0,1-1.47-1.57c-2.38-3.08-8.68-8.35-9.14-8.81"/><path class="00aa7e27-3604-4d90-bdd5-a1c1c0de917e" d="M373.84,333.19c-.81-.89-2.09-2.21-2.59-1a12,12,0,0,0,3.49,13.89c19.25,15.74,72,58.82,72.78,58.68.9-.18,3.25,1.45,3.25,1.45,1.63-1.81-1.08-4.71-1.08-4.71L385.08,344.2a11.49,11.49,0,0,1-1.47-1.57c-2.38-3.08-8.68-8.35-9.14-8.81"/></g><path class="21e31365-a317-4e9f-8c5e-99e6bcc08a7f" d="M175.21,169.43c-2.63-.14.15-2.38,8.82-2.15,8.27.22,15,4.5,17.28,6.1a.56.56,0,0,1-.07,1c-1,.53-2.19,1.58-.22,3.06,2.89,2.17,10.48,8.68,12.65,11.93C213.67,189.33,182.59,169.81,175.21,169.43Z"/><path class="092eebf6-276d-4187-836a-2234326b6f79" d="M175.21,169.43c-2.63-.14.15-2.38,8.82-2.15,8.27.22,15,4.5,17.28,6.1a.56.56,0,0,1-.07,1c-1,.53-2.19,1.58-.22,3.06,2.89,2.17,10.48,8.68,12.65,11.93C213.67,189.33,182.59,169.81,175.21,169.43Z"/><path class="61852188-c5a2-4d7a-a030-6db52b8d1377" d="M205.54,191.5s-8.5-7.95-13.74-7.95-15.29-13.92-15.29-13.92,10.59,2.71,37.16,19.7c1.09.9-8.13-3.25-8.31-1.45A14.06,14.06,0,0,0,205.54,191.5Z"/><g class="6f94df23-1fb1-49ae-8378-8c32ecdfe6b0"><path class="2052211a-f1b8-43e0-b76a-0f356a8e2973" d="M213.6,238.9c-3.65,4.39-7.48,9.27-7.57,15A18.37,18.37,0,0,0,209.45,264c6.84,10.48,18.9,16.11,30.33,21.22,7,3.12,14,6.24,21.11,9a279.62,279.62,0,0,0,31.21,10.1c22.32,5.87,42.47,10.92,64.3,18.4,12.49,4.29,26.22,8.36,39.39,9.42a43,43,0,0,0-12.93-8A61.57,61.57,0,0,1,354,299c2.27,2.38,6.61-.82,6.35-4.1s-3-5.72-5.6-7.77L330,267.34l-7.1-5.67L294,238.56c-4.67-3.74-9.38-7.5-14.72-10.18-13.26-6.66-28.92-6-43.65-4.2-4.3.52-8.68,1.15-12.56,3.09a20.44,20.44,0,0,0-10.54,13.1"/></g><g class="fc6785cc-8bdc-4320-91cf-929c194d0f78"><path class="c9cbee10-2b4c-417d-a6bb-5f85a1b0a8ef" d="M229.1,246.12c-10.66-4.57-22.6,3.74-21.66,15.31a6.15,6.15,0,0,0,.64,2.61c6.84,10.48,18.9,16.11,30.33,21.22,7,3.12,14,6.24,21.11,9a280.29,280.29,0,0,0,31.21,10.1c22.32,5.87,42.47,10.92,64.3,18.4,12.5,4.29,27.59,8.36,40.76,9.42-3.56-4.22-9.21-5.86-14.3-8A61.75,61.75,0,0,1,355,302.7a16.27,16.27,0,0,0-7-5.67Z"/></g><g class="21e78e3b-4c64-49b4-82ec-4d4756296858"><path class="d6ef3274-0749-4ac0-a269-617883e72a53" d="M273,236c-10.67-4.56-22.6,3.74-21.66,15.31a6.17,6.17,0,0,0,.63,2.61c6.85,10.49,18.91,16.11,30.34,21.22,7,3.12,14,6.24,21.11,9a279.62,279.62,0,0,0,31.21,10.1c22.31,5.87,9.63,3.73,31.46,11.21,12.49,4.28-8.25-13.83-11.07-15Z"/></g><g class="21e78e3b-4c64-49b4-82ec-4d4756296858"><path class="d8efab0f-3990-497b-a73d-ca765af58e60" d="M273.54,229.39c-7.94-3.28-16.83,2.68-16.12,11a4.15,4.15,0,0,0,.47,1.87c5.09,7.53,14.07,11.57,22.58,15.23,5.21,2.24,10.41,4.48,15.72,6.49a217.73,217.73,0,0,0,23.23,7.25c16.62,4.21,7.18,2.67,23.43,8,9.3,3.07-6.15-9.93-8.24-10.79Z"/></g><g class="27f0e0a9-4b31-496d-ac66-3c3c66e61fa5"><path class="47866454-131c-4c78-bc37-d8e130d9e01f" d="M249.72,259.65a11.21,11.21,0,0,0-7.85-1.58c-4.83.93-8.7,4.94-8.25,9.95a3.45,3.45,0,0,0,.42,1.6c4.57,6.41,12.62,9.85,20.25,13,4.67,1.91,9.33,3.82,14.09,5.53a198.59,198.59,0,0,0,20.83,6.18c14.9,3.59,6.43,2.28,21,6.86,8.34,2.62-5.5-8.46-7.38-9.2Z"/></g><g class="910a897d-6389-4d02-a5f1-ae358d88a79d"><path class="72b86c58-f9ae-4787-835c-f19cc2dbb5c0" d="M225.07,256.58a6.48,6.48,0,0,0-1.47-.78c-7.68-2.79-15.3,0-14.62,8.06a4.15,4.15,0,0,0,.47,1.87c5.09,7.53,14.05,12.93,22.56,16.6,5.2,2.24,10.24,4.19,15.55,6.2,7.58,2.87,24.14,10.36,40.39,15.73,8.94,3-6.9-9.78-10-11.54a9.45,9.45,0,0,1-.86-.53Z"/></g><g class="21e78e3b-4c64-49b4-82ec-4d4756296858"><path class="e1ba7594-fb0d-4ff0-a34d-ce2ca8145b5e" d="M365.72,329.92a5,5,0,0,0-1.19-.67c-4.41-1.64-8.71.16-8.32,5.14a2.88,2.88,0,0,0,.27,1.18c3,4.74,8.17,8.14,13.12,10.45,3,1.41,6,2.64,9,3.9,4.41,1.81,14,6.52,23.49,9.9,5.2,1.86-4-6.16-5.82-7.26-.17-.1-.33-.21-.5-.33Z"/></g><g class="21e78e3b-4c64-49b4-82ec-4d4756296858"><path class="770d99b9-77a2-4dc7-b3aa-db80f0792cbd" d="M374.61,324.44a2.75,2.75,0,0,0-.69-.43c-3.61-1.58-7.19,0-6.87,4.55a2.68,2.68,0,0,0,.22,1.06c2.39,4.25,6.6,7.31,10.6,9.38,2.45,1.26,4.82,2.37,7.31,3.5,3.57,1.63,11.35,5.86,19,8.9,4.2,1.67-3.25-5.53-4.7-6.52l-.4-.31Z"/></g><g class="21e78e3b-4c64-49b4-82ec-4d4756296858"><path class="debb3611-2d97-4acc-b602-bf4e1880e2fe" d="M252.78,246.89a49.46,49.46,0,0,0-5.7-2.71c-10.09-2.81-18-1.34-17.15,9.51a6.17,6.17,0,0,0,.63,2.61c6.84,10.48,18.9,16.11,30.34,21.21,7,3.13,14,6.25,21.11,9a279.62,279.62,0,0,0,31.21,10.1c22.31,5.87,41.64,14.05,64.3,18.4C399.37,319.25,267,254.65,252.78,246.89Z"/></g><circle class="929817fb-7899-4d6a-9417-dd37180f42fd" cx="228.15" cy="187.42" r="6.83"/><circle class="f3b5bdd7-a210-440d-a97c-c532a402fd28" cx="228.15" cy="187.42" r="4.78"/><circle cx="228.15" cy="187.42" r="2.66"/><circle class="633da08c-7892-4afa-9398-2c17bfd763fa" cx="229.86" cy="185.72" r="1.54"/><path class="89c5a837-58fc-452d-aadf-e9e487b7942e" d="M210.83,412.52l27.38-13,6.5-5,24.4-13.69L294,368.68l24.2-12.27,13-3.68s7.59,1.24,6.23,6.12.55,6-6.77,8.94-28,16.27-29.74,16.81-5.63,1.8-11.4,6.73-19,12.42-24.87,15.86-9.35,8-19.66,11.57-18.43,11.65-23.85,11.65-16.27,1.9-16.54-2.44S204.59,417.13,210.83,412.52Z"/><path class="bdffb991-5834-4d16-85f9-caaa9db9ac72" d="M276.38,334.37l.09.16.69,1.32,4.34,8.39a1,1,0,0,1,.13.3l1.23,3.56a2.24,2.24,0,0,1-.19,1.89c-3,5-19.56,31.86-23.45,35-4.34,3.52-10.44,4.74-14,6.64s-6,7.06-6,7.06a16.4,16.4,0,0,1,3.58-2.57c2.71-1.65,4.4-2.75,7.53-3.28a41.62,41.62,0,0,1,5.48-.67c2.71,0,8.09,4.54,8.64,7.46a24.89,24.89,0,0,1,.17,5.37c-.07,1.12,0,2.34,1.1,2.33,0,0,.8-2.17.95-2.86a21.81,21.81,0,0,0,.12-5.52,7,7,0,0,0-.6-2.15c-.72-1.55-2.94-5.56-2.81-5.89a50.37,50.37,0,0,1,5.71-10.12c4.88-7.05,16.27-27.38,20.33-30.64,3.05-2.44-.2-6.1-2-7.77-.63-.59,1.56-2.89,1.56-2.89l1.7-4.29c.38-1.29-2.95-2.73-4.28-3L278.67,331a2.26,2.26,0,0,0-2.29,3.42Z"/><path class="e8c1b5f6-295b-4493-91fc-d46589b30718" d="M299.09,331.68l.09.14.68,1.18,4.35,7.46c.05.09.09.18.13.27l1.23,3.17a1.8,1.8,0,0,1-.19,1.68c-3,4.48-17.4,24-21.29,26.85-4.34,3.13-10.44,4.22-14,5.91s-7.05,8-7.05,8c1.09,1,2.16-.89,4.08-2.85a14.24,14.24,0,0,1,8.06-4,45.32,45.32,0,0,1,5.48-.6c2.71,0,8.1,4,8.64,6.64a19.25,19.25,0,0,1,.17,4.78c-.06,1,0,2.09,1.11,2.08,0,0,.79-1.93.95-2.55a17.88,17.88,0,0,0,.11-4.91,5.51,5.51,0,0,0-.6-1.92c-.72-1.38-2.93-4.95-2.81-5.24a43.63,43.63,0,0,1,5.71-9c4.88-6.27,14.1-20,18.17-22.93,3.05-2.17-.2-5.43-2-6.93-.63-.51,1.57-2.56,1.57-2.56l1.7-3.82c.37-1.15-2.95-2.43-4.28-2.63l-7.74-1.17c-1.92-.29-3.32,1.57-2.29,3Z"/></g></g></svg>