<svg xmlns="http://www.w3.org/2000/svg" xmlns:xlink="http://www.w3.org/1999/xlink" viewBox="0 0 566.93 566.93"><defs><style>.\34 197f883-fab7-41bc-bf99-1322e2f01b5b{fill:url(#03ebd3c6-5172-49ee-9ec6-8d24eee121a0);}.fbe7a4b9-62d7-44a2-a536-62179f84d031{fill:url(#a7060688-6a41-41bb-8478-fb2f6c664490);}.\34 2f5e3ff-e6a3-4f54-abd8-9cb3aaebdc12{fill:url(#3d213c8e-985b-4916-b6c1-10fdf0c337aa);}.\35 461873d-79f4-4f6d-ae36-cc9a83288698{fill:url(#2b5d7c69-2108-45b3-88c5-c9fab40d3fc4);}.da6fd462-de4f-4cb0-b432-9278d17e9e47{fill:url(#6666b844-c352-4a5c-90d3-d40bd05d58f5);}.e7ef0bf8-8621-4ac3-a10a-ac70320a9c82{fill:url(#1a1b63be-9bae-4c35-ace1-508cb86b024a);}.\32 ee439ca-8ce4-41c8-885c-53394e8ef03a{opacity:0.76;fill:url(#e03e098e-495b-49e7-860c-03054274f25c);}.\31 d793d12-982d-469a-8640-fdfae4e15dea,.\37 d220648-ed30-4c38-ad74-d662d7b012e4{opacity:0.82;}.\37 d220648-ed30-4c38-ad74-d662d7b012e4{fill:url(#350cd2f3-ec32-421f-85ff-152a8527206c);}.\31 d793d12-982d-469a-8640-fdfae4e15dea{fill:url(#4eb344de-d83f-4f1b-8c24-3eb306014e85);}.d50dfc0b-89a0-4113-bc61-57275a8a9aba{opacity:0.62;fill:url(#7a687536-1e52-4499-866d-4b7d2a5d0d49);}.ba9cdfac-30b0-41c9-8b98-6561c0594cac{opacity:0.94;fill:url(#a8f0a7dc-9c1b-4eef-92f1-eac009fd0c8e);}.\30 aa4528b-30f2-4caf-b2e1-335680c953a8{opacity:0.97;fill:url(#8fb156ea-f666-43c2-ab52-5f3f70e33e30);}.c8809542-8bb7-4135-98dd-b479fbbf6a04{fill:url(#86dda197-03e8-46c1-aab5-08869bc2137e);}.\36 867f289-a546-456d-a1d2-a1b4ea9d11f5{fill:url(#6e223811-b4ed-4c31-948d-2dcb24f1897d);}.dffac72b-8396-45d4-880c-4ec6eb11d903{fill:url(#2615bf47-932b-41bd-8854-3110a4c54182);}.f89385af-4b9a-4425-a6fd-520347afeff9{fill:url(#b417315a-12d0-43a0-97e2-c1cd510d125a);}.\31 48b943b-408d-4046-a5b4-8a7158c43c65{fill:url(#edb3ede4-4b9d-4b0e-b7da-37953e2130a2);}.\32 9e6b831-720f-4c00-ab4c-efa31d5577da{fill:url(#cad0a3db-ce82-4567-84ff-6eb15773ed48);}.\31 991a94a-05a1-4d5a-b0e8-0acfec5c9b69{fill:url(#c952d296-7dea-4d4f-8e13-1d1d11ddf283);}.\30 4f97c3c-a48b-419a-be70-56b59afd4f63{fill:url(#7e419d4b-0bcd-47d7-aad4-743e7647330e);}.\35 5a6c4b4-84fc-4315-9fe2-23221cbd06b9{fill:url(#371e1257-b2e1-4cc2-b967-431870a7b56c);}.\34 807a567-727f-4694-820e-c651a85d407b{fill:url(#23b47742-57d1-40f4-8da7-4308b76624e9);}.\38 f04f484-245c-408c-b88d-51ffef3c0567{fill:url(#ea96392d-28fc-46c7-a51e-1705cb36f6cb);}.\34 db1a2dc-9dac-47f3-890c-1ecd296bcc8e{fill:url(#188f61b8-74aa-4d2c-af4c-a679048695f5);}.\31 90ddbf8-9253-4bb3-a33b-8222f9c8e6b1{fill:url(#5ea32882-195a-4a49-9bea-a6433cc247f6);}.\38 a6f276e-52df-468d-b1d7-9ccf89ecd5c8{fill:url(#aa6468a0-bbc0-412a-8fcf-e491b55eb3a1);}.\38 9c5f5ac-bc66-4525-8dcc-70826da5dcb1{fill:url(#1ff84a79-84e1-47fb-8f8b-cc6dd9b96013);}.d70e1238-da0a-4f65-9794-eeaf151c9573{fill:url(#7b461cac-c6db-40b5-9662-77a8a1b407fc);}.\32 424922b-716a-45bb-a35b-6d2ef7ff8fcd{fill:url(#16d29742-54cc-4bbc-9be8-c5d7408181d9);}.\35 d68cde4-8503-4329-9c4d-ad1ab9f0ce4b{fill:url(#3cddaa8e-2ea2-4950-808b-1795c2728512);}.\30 56502bc-fca3-4284-b876-b20f93556450{opacity:0.38;fill:url(#2dbf8478-f667-4436-bf90-990a9ab3b3d9);}</style><radialGradient id="03ebd3c6-5172-49ee-9ec6-8d24eee121a0" cx="236.22" cy="327.09" fx="416.27262835290423" fy="413.0564317886811" r="256.47" gradientUnits="userSpaceOnUse"><stop offset="0" stop-color="#fff"/><stop offset="0.22" stop-color="#fcfcfc"/><stop offset="0.39" stop-color="#f2f2f2"/><stop offset="0.55" stop-color="#e2e2e2"/><stop offset="0.69" stop-color="#cacaca"/><stop offset="0.7" stop-color="#c9c9c9"/><stop offset="0.84" stop-color="#d7d7d7"/><stop offset="1" stop-color="#ebebeb"/></radialGradient><radialGradient id="a7060688-6a41-41bb-8478-fb2f6c664490" cx="206.71" cy="233.11" fx="322.88858407655925" fy="288.58077891560345" r="165.49" gradientUnits="userSpaceOnUse"><stop offset="0.02" stop-color="#c9c9c9"/><stop offset="0.04" stop-color="#cecece"/><stop offset="0.16" stop-color="#e4e4e4"/><stop offset="0.28" stop-color="#f3f3f3"/><stop offset="0.43" stop-color="#fcfcfc"/><stop offset="0.64" stop-color="#fff"/><stop offset="0.71" stop-color="#fafafa"/><stop offset="0.77" stop-color="#ededed"/><stop offset="0.85" stop-color="#d7d7d7"/><stop offset="0.92" stop-color="#b8b8b8"/><stop offset="1" stop-color="#919191"/><stop offset="1" stop-color="#8f8f8f"/></radialGradient><radialGradient id="3d213c8e-985b-4916-b6c1-10fdf0c337aa" cx="293.73" cy="342.77" fx="315.57704308520545" fy="308.90877795626625" r="76.93" gradientUnits="userSpaceOnUse"><stop offset="0.02" stop-color="#fff" stop-opacity="0"/><stop offset="0.03" stop-color="#fff" stop-opacity="0.01"/><stop offset="0.11" stop-color="#fff" stop-opacity="0.09"/><stop offset="0.2" stop-color="#fff" stop-opacity="0.15"/><stop offset="0.31" stop-color="#fff" stop-opacity="0.19"/><stop offset="0.46" stop-color="#fff" stop-opacity="0.2"/><stop offset="0.62" stop-color="#e6e6e6" stop-opacity="0.3"/><stop offset="0.79" stop-color="#9c9c9c" stop-opacity="0.59"/><stop offset="0.88" stop-color="#5f5f5f" stop-opacity="0.83"/><stop offset="0.98" stop-color="#0f0f0f" stop-opacity="0.97"/><stop offset="1"/></radialGradient><radialGradient id="2b5d7c69-2108-45b3-88c5-c9fab40d3fc4" cx="322.42" cy="205.53" r="3.64" gradientUnits="userSpaceOnUse"><stop offset="0" stop-color="#ac8b5f"/><stop offset="0.4" stop-color="#aa895e"/><stop offset="0.55" stop-color="#a3845a"/><stop offset="0.65" stop-color="#987a54"/><stop offset="0.74" stop-color="#876d4a"/><stop offset="0.81" stop-color="#715b3e"/><stop offset="0.87" stop-color="#55452f"/><stop offset="0.93" stop-color="#352b1d"/><stop offset="0.98" stop-color="#110e09"/><stop offset="1"/></radialGradient><radialGradient id="6666b844-c352-4a5c-90d3-d40bd05d58f5" cx="322.46" cy="205.45" r="2.86" gradientUnits="userSpaceOnUse"><stop offset="0" stop-color="#48230c"/><stop offset="0.48" stop-color="#46220c"/><stop offset="0.65" stop-color="#3f1f0b"/><stop offset="0.78" stop-color="#341909"/><stop offset="0.88" stop-color="#231106"/><stop offset="0.96" stop-color="#0d0602"/><stop offset="1"/></radialGradient><radialGradient id="1a1b63be-9bae-4c35-ace1-508cb86b024a" cx="323.49" cy="204.43" r="0.92" gradientUnits="userSpaceOnUse"><stop offset="0" stop-color="#fff"/><stop offset="0.32" stop-color="#fdfdfd" stop-opacity="0.99"/><stop offset="0.46" stop-color="#f8f8f8" stop-opacity="0.96"/><stop offset="0.56" stop-color="#efefef" stop-opacity="0.92"/><stop offset="0.65" stop-color="#e1e1e1" stop-opacity="0.85"/><stop offset="0.72" stop-color="#d0d0d0" stop-opacity="0.75"/><stop offset="0.79" stop-color="#bbb" stop-opacity="0.64"/><stop offset="0.85" stop-color="#a1a1a1" stop-opacity="0.51"/><stop offset="0.9" stop-color="#848484" stop-opacity="0.36"/><stop offset="0.95" stop-color="#646464" stop-opacity="0.19"/><stop offset="1" stop-color="#404040" stop-opacity="0"/></radialGradient><linearGradient id="e03e098e-495b-49e7-860c-03054274f25c" x1="106.28" y1="354.43" x2="107.68" y2="358.29" gradientUnits="userSpaceOnUse"><stop offset="0"/><stop offset="0.21" stop-color="#030303"/><stop offset="0.38" stop-color="#0d0d0d"/><stop offset="0.52" stop-color="#1c1c1c"/><stop offset="0.57" stop-color="#2a2a2a"/><stop offset="0.66" stop-color="#505050"/><stop offset="0.79" stop-color="#8d8d8d"/><stop offset="0.94" stop-color="#e0e0e0"/><stop offset="1" stop-color="#fff"/></linearGradient><linearGradient id="350cd2f3-ec32-421f-85ff-152a8527206c" x1="128.56" y1="337.62" x2="130.56" y2="343.11" gradientTransform="translate(7.05 8.64) rotate(0.53)" gradientUnits="userSpaceOnUse"><stop offset="0"/><stop offset="0.12" stop-color="#030201" stop-opacity="0.99"/><stop offset="0.19" stop-color="#0e0702" stop-opacity="0.97"/><stop offset="0.25" stop-color="#201005" stop-opacity="0.94"/><stop offset="0.3" stop-color="#391e09" stop-opacity="0.89"/><stop offset="0.35" stop-color="#5a2e0e" stop-opacity="0.82"/><stop offset="0.36" stop-color="#653410" stop-opacity="0.8"/><stop offset="0.47" stop-color="#866044" stop-opacity="0.84"/><stop offset="0.61" stop-color="#b19886" stop-opacity="0.9"/><stop offset="0.74" stop-color="#d2c4ba" stop-opacity="0.94"/><stop offset="0.85" stop-color="#ebe4e0" stop-opacity="0.97"/><stop offset="0.94" stop-color="#faf8f7" stop-opacity="0.99"/><stop offset="1" stop-color="#fff"/></linearGradient><linearGradient id="4eb344de-d83f-4f1b-8c24-3eb306014e85" x1="130.75" y1="303.28" x2="135.25" y2="315.65" gradientTransform="translate(26.72 33.35) rotate(2.04)" xlink:href="#350cd2f3-ec32-421f-85ff-152a8527206c"/><linearGradient id="7a687536-1e52-4499-866d-4b7d2a5d0d49" x1="140.81" y1="345.38" x2="142.22" y2="349.24" xlink:href="#e03e098e-495b-49e7-860c-03054274f25c"/><linearGradient id="a8f0a7dc-9c1b-4eef-92f1-eac009fd0c8e" x1="281.03" y1="213.42" x2="329.77" y2="213.42" gradientUnits="userSpaceOnUse"><stop offset="0"/><stop offset="0.27" stop-color="#030303"/><stop offset="0.49" stop-color="#0d0d0d"/><stop offset="0.67" stop-color="#1c1c1c"/><stop offset="0.92" stop-color="#2a2a2a"/><stop offset="1" stop-color="#303030"/></linearGradient><linearGradient id="8fb156ea-f666-43c2-ab52-5f3f70e33e30" x1="307.77" y1="250.21" x2="357.23" y2="250.21" xlink:href="#a8f0a7dc-9c1b-4eef-92f1-eac009fd0c8e"/><linearGradient id="86dda197-03e8-46c1-aab5-08869bc2137e" x1="414.02" y1="395.56" x2="414.53" y2="383.17" gradientTransform="translate(-114.04 -111.9) rotate(-9.19)" gradientUnits="userSpaceOnUse"><stop offset="0"/><stop offset="0.15" stop-color="#030303"/><stop offset="0.27" stop-color="#0d0d0d"/><stop offset="0.37" stop-color="#1c1c1c"/><stop offset="0.51" stop-color="#242424" stop-opacity="0.61"/><stop offset="0.76" stop-color="#2d2d2d" stop-opacity="0.15"/><stop offset="1" stop-color="#303030" stop-opacity="0"/></linearGradient><linearGradient id="6e223811-b4ed-4c31-948d-2dcb24f1897d" x1="357.49" y1="198.04" x2="355.73" y2="218.3" gradientTransform="matrix(1, 0, 0, 1, 0, 0)" xlink:href="#86dda197-03e8-46c1-aab5-08869bc2137e"/><linearGradient id="2615bf47-932b-41bd-8854-3110a4c54182" x1="150.26" y1="300.73" x2="296.77" y2="300.73" gradientUnits="userSpaceOnUse"><stop offset="0"/><stop offset="0"/><stop offset="0.22" stop-color="#151515"/><stop offset="0.36" stop-color="#1c1c1c"/><stop offset="0.53" stop-color="#999" stop-opacity="0.45"/><stop offset="0.73" stop-color="#e7e7e7" stop-opacity="0.11"/><stop offset="1" stop-color="#fff" stop-opacity="0"/></linearGradient><linearGradient id="b417315a-12d0-43a0-97e2-c1cd510d125a" x1="192.1" y1="308.48" x2="267.09" y2="308.48" gradientUnits="userSpaceOnUse"><stop offset="0"/><stop offset="0.15" stop-color="#030303"/><stop offset="0.27" stop-color="#0d0d0d"/><stop offset="0.37" stop-color="#1c1c1c"/><stop offset="0.73" stop-color="#262626" stop-opacity="0.49"/><stop offset="1" stop-color="#303030" stop-opacity="0"/></linearGradient><linearGradient id="edb3ede4-4b9d-4b0e-b7da-37953e2130a2" x1="203.51" y1="310.84" x2="265.94" y2="310.84" xlink:href="#b417315a-12d0-43a0-97e2-c1cd510d125a"/><linearGradient id="cad0a3db-ce82-4567-84ff-6eb15773ed48" x1="215.36" y1="308.4" x2="276.5" y2="308.4" xlink:href="#b417315a-12d0-43a0-97e2-c1cd510d125a"/><linearGradient id="c952d296-7dea-4d4f-8e13-1d1d11ddf283" x1="226.84" y1="307.1" x2="286.24" y2="307.1" xlink:href="#b417315a-12d0-43a0-97e2-c1cd510d125a"/><linearGradient id="7e419d4b-0bcd-47d7-aad4-743e7647330e" x1="189.93" y1="308.37" x2="246.35" y2="308.37" xlink:href="#b417315a-12d0-43a0-97e2-c1cd510d125a"/><linearGradient id="371e1257-b2e1-4cc2-b967-431870a7b56c" x1="234.82" y1="453.75" x2="294.22" y2="453.75" gradientTransform="translate(-105.84 -108.89) rotate(-7.69)" xlink:href="#b417315a-12d0-43a0-97e2-c1cd510d125a"/><radialGradient id="23b47742-57d1-40f4-8da7-4308b76624e9" cx="173.7" cy="348.12" r="41.05" gradientTransform="translate(58.64 -66.28) scale(1.08 1.1)" gradientUnits="userSpaceOnUse"><stop offset="0"/><stop offset="0.11" stop-color="#0d0d0d"/><stop offset="0.27" stop-color="#181818"/><stop offset="0.43" stop-color="#1c1c1c"/><stop offset="1" stop-color="#fff" stop-opacity="0"/></radialGradient><linearGradient id="ea96392d-28fc-46c7-a51e-1705cb36f6cb" x1="258.69" y1="303.2" x2="303.82" y2="268.5" gradientUnits="userSpaceOnUse"><stop offset="0"/><stop offset="0.12" stop-color="#030201" stop-opacity="0.99"/><stop offset="0.19" stop-color="#0e0702" stop-opacity="0.97"/><stop offset="0.25" stop-color="#201005" stop-opacity="0.94"/><stop offset="0.3" stop-color="#391e09" stop-opacity="0.89"/><stop offset="0.35" stop-color="#5a2e0e" stop-opacity="0.82"/><stop offset="0.36" stop-color="#653410" stop-opacity="0.8"/><stop offset="0.43" stop-color="#896448" stop-opacity="0.66"/><stop offset="0.59" stop-color="#cbbbaf" stop-opacity="0.4"/><stop offset="0.77" stop-color="#f3efec" stop-opacity="0.25"/><stop offset="1" stop-color="#fff" stop-opacity="0.2"/></linearGradient><radialGradient id="188f61b8-74aa-4d2c-af4c-a679048695f5" cx="161.06" cy="308.89" r="41.53" gradientTransform="translate(44.66 -3.49) scale(1.06 1.01)" xlink:href="#23b47742-57d1-40f4-8da7-4308b76624e9"/><radialGradient id="5ea32882-195a-4a49-9bea-a6433cc247f6" cx="156.36" cy="308.09" r="41.53" gradientTransform="translate(44.66 -3.49) scale(1.06 1.01)" xlink:href="#23b47742-57d1-40f4-8da7-4308b76624e9"/><radialGradient id="aa6468a0-bbc0-412a-8fcf-e491b55eb3a1" cx="190.25" cy="315.17" r="41.05" gradientTransform="translate(44.66 -3.49) scale(1.06 1.01)" xlink:href="#23b47742-57d1-40f4-8da7-4308b76624e9"/><linearGradient id="1ff84a79-84e1-47fb-8f8b-cc6dd9b96013" x1="267.09" y1="283.42" x2="318.36" y2="283.42" xlink:href="#ea96392d-28fc-46c7-a51e-1705cb36f6cb"/><linearGradient id="7b461cac-c6db-40b5-9662-77a8a1b407fc" x1="270.27" y1="283.14" x2="335.8" y2="283.14" xlink:href="#ea96392d-28fc-46c7-a51e-1705cb36f6cb"/><linearGradient id="16d29742-54cc-4bbc-9be8-c5d7408181d9" x1="162.2" y1="318.07" x2="223.7" y2="318.07" xlink:href="#b417315a-12d0-43a0-97e2-c1cd510d125a"/><linearGradient id="3cddaa8e-2ea2-4950-808b-1795c2728512" x1="209.42" y1="294.86" x2="237.34" y2="294.86" gradientUnits="userSpaceOnUse"><stop offset="0"/><stop offset="0.37" stop-color="#1c1c1c"/><stop offset="0.53" stop-color="#252525" stop-opacity="0.55"/><stop offset="0.76" stop-color="#2d2d2d" stop-opacity="0.14"/><stop offset="1" stop-color="#303030" stop-opacity="0"/></linearGradient><linearGradient id="2dbf8478-f667-4436-bf90-990a9ab3b3d9" x1="298.38" y1="164.12" x2="296.37" y2="297.58" gradientUnits="userSpaceOnUse"><stop offset="0" stop-color="#8a8a8a"/><stop offset="0.23" stop-color="#7c7c7c"/><stop offset="0.45" stop-color="#757575"/><stop offset="0.45" stop-color="#767676" stop-opacity="0.99"/><stop offset="0.52" stop-color="#a0a0a0" stop-opacity="0.69"/><stop offset="0.6" stop-color="#c2c2c2" stop-opacity="0.44"/><stop offset="0.68" stop-color="#ddd" stop-opacity="0.25"/><stop offset="0.77" stop-color="#f0f0f0" stop-opacity="0.11"/><stop offset="0.87" stop-color="#fbfbfb" stop-opacity="0.03"/><stop offset="1" stop-color="#fff" stop-opacity="0"/></linearGradient></defs><title>birds</title><g id="1e9400b7-b99a-4383-b445-d326d11b25b7" data-name="Bachstelze"><path class="4197f883-fab7-41bc-bf99-1322e2f01b5b" d="M351.71,202.65s-5.16-6.66-16.69-12-27.78-5.68-41.3,9.49c-13.82,15.49-11.48,20.22-11.48,20.22l2.66-1.11s.23.89-1.33,3.77-1.5,8.88-1.5,8.88l.54,4.08,3.47,2.14-1.62,2.42s-9.09,4.66-19.29,14.86S243,274.8,227.69,288.1c-21.8,19-28.61,22.1-28.61,22.1s-29.67,18-30.56,19.31-2.26,3.53-2.26,3.53l-2.44,2.22-51.44,19.29s-39,12.86-44.13,15.3-19.74,8.43-22,10c-1.87,1.31-2.76,2.22-3.76,2.55-.19.07-.26-.11-.33.08,0,0,6.44-1.42,8.07-2l6.89-2.41-4.22,3.32,13.31-3.77,95.36-29.94s23.95-3.32,35.26-3.32,40.36,2.66,42.8,2.66a19.26,19.26,0,0,1,4.21.44s-5.77,2.89-6,5.32,1.11,10.65,2.66,14.64,11.53,31.27,11.53,33.26-2.28,7-2.28,7-9-.38-11.22,1.17-4.9,3.83-4.9,3.83,3.63-3.08,5.4-3.08,8.57,0,12.34,0,18.85-.06,18.85-.06l-5.93-.12c-3.68-.93-6.23-4.84-7.68-8.35l-.81-2s-10-32.37-9.75-37.2c.14-3.17,8.65-13.36,8.65-13.36s15.08-.89,21.73-2.22c2.47-.49,6.56-1.59,11.1-2.92h0c-.89,6.21-2.45,19.11-2.45,19.11a11,11,0,0,0,0,6c.88,3.55,3.77,9.09,5.32,9.54s10.64,9.53,10.64,9.53l16.64,20s2.07,3.6-.59,4.27-.84,1.91-.84,1.91,18-3.91,32.69,1.58c1.78.66,1.33-2.66,1.33-2.66s1.82-1,2.9-.16a2.38,2.38,0,0,0-2.21-1c-1.55,0-24.56-2.66-24.56-2.66l-31.57-35.2.53-11.76a21.31,21.31,0,0,1,1.14-6l5.81-17.1c2.55-.87,4.81-1.69,6.5-2.37,12.33-4.94,34.67-12.79,45-50.56,9.54-34.81-6.43-46.12-6.43-46.12l-2.63-3.28c-2.05-1.69-4.81-4.12-4.95-6.78-.07-1.3,1.46-2.63,1.93-3.89l.45-1.22a14.53,14.53,0,0,1,3.75-5.58l3.36-3a47.87,47.87,0,0,1,6.51-3.05l.24-.07,15.65-2.64L356.43,209l-15.08,1.2,14.84-3.65s13.83-.95,14.94-1.17a4.88,4.88,0,0,0,2-1S367.23,201.37,351.71,202.65Z"/><path class="fbe7a4b9-62d7-44a2-a536-62179f84d031" d="M351.71,202.65h0c-1.14-1.49-6.39-7.27-16.69-12-11.53-5.32-28.82-5.48-41.3,9.53-9.63,11.57-11.61,16.79-11.65,19a.84.84,0,0,0,1.17.77l1.66-.69s.23.89-1.33,3.77-1.5,8.87-1.5,8.87l.54,3.58a.79.79,0,0,0,.38.67l2.54,1.53c.39.26.05,1.19-.21,1.58l-.74,1.11a.71.71,0,0,1-.3.27,87.93,87.93,0,0,0-19.11,14.77c-10.2,10.2-22.22,19.37-37.48,32.67-21,18.32-28.1,21.86-28.58,22.09l-.06,0c-1.14.67-29.29,17.91-30.16,19.21-.75,1.13-2.3,2.85-2.56,3.45a.72.72,0,0,1-.2.29l-2.19,2a1,1,0,0,1-.27.17l-51.29,19.23s-39,12.86-44.13,15.3-19.74,8.43-22,10a11.81,11.81,0,0,1-3.88,1.85c-.24.08-1.6.82-1.41,1.09.41.6,5.2-.45,6.77-1.09.61-.25,9.39-3.62,9.39-3.62l-4.22,3.33,13.31-3.77,95.29-29.92.13,0c1.36-.19,24.22-3.32,35.2-3.32,11.31,0,40.36,2.66,42.8,2.66.64,0,1.24,0,1.77.08a.84.84,0,0,1,.38,1.54c-1.68,1.07-3.8,2.69-3.93,4.15-.22,2.44,1.11,10.64,2.66,14.63s11.53,31.27,11.53,33.27c0,1.6-1.57,4.64-2.19,5.77-.15.27.07.7-.25.7-2,0-9.14.37-11.06,1.71-2.21,1.56-4.9,3.79-4.9,3.79s4.71-3.45,6.48-3.45,7.49.45,11.26.45c2.32,0,8.18.15,12.92-.18,1-.06,6.86.58,5.93.34l-6.52-1.71c-3.94-1-5.7-3.65-7.25-7.41l-.63-1.53,0-.07c-.35-1.15-10-32.43-9.74-37.16.13-2.87,7.06-11.44,8.42-13.09a.83.83,0,0,1,.59-.3c2.33-.14,15.32-1,21.37-2.19,2.47-.5,6.56-1.59,11.1-2.93h0c-.85,5.94-2.32,18-2.44,19l0,.14a11.16,11.16,0,0,0,0,5.92c.88,3.55,3.77,9.1,5.32,9.54s10.13,9,10.62,9.51l.05.05,16.49,19.8a.76.76,0,0,1,.17.32c.19.72,1.64,3.55-.64,4.12a10.5,10.5,0,0,0-4.32,2.23,5.41,5.41,0,0,1,2.52-.71c.28,0,.68,1,1,1,5.49-.33,16.63-4.35,32.65.93,1.29.43,1.45-1.27,1.4-2.09a.83.83,0,0,1,.57-.83,2.51,2.51,0,0,1,2.26.11,2.33,2.33,0,0,0-2.21-1c-1.45,0-21.8-2.32-24.56-2.66a5.69,5.69,0,0,1-1.22-.94l-30.11-34a.83.83,0,0,1-.22-.6l.51-11.3a22.64,22.64,0,0,1,1.17-6.26l5.64-16.6a.88.88,0,0,1,.53-.52c2.39-.82,4.51-1.59,6.11-2.23,12.33-4.95,34.67-12.8,45-50.56,9.54-34.82-5.1-46.13-5.1-46.13l-4-3.27c-2.05-1.7-5.11-3.9-5.24-6.56-.07-1.3,1.75-2.85,2.22-4.11l.45-1.23A14.42,14.42,0,0,1,346,218.9l3.36-3c.31-.25,3-1.69,3.43-2,1.6-1.28,5.93-1.32,10.85-1.83a26.44,26.44,0,0,0,8.12-1.86l-6.85-.68-9.59-.55-14,1.21,14.84-3.65c1-.11,13.88-1,14.94-1.17a3.79,3.79,0,0,0,2-1c.07-.07-.26-.63-1.35-.85C363,201.8,356,202.51,351.71,202.65Z"/><path class="42f5e3ff-e6a3-4f54-abd8-9cb3aaebdc12" d="M239.67,347.23a18.86,18.86,0,0,1,4.21.45s-5.77,2.88-6,5.32,1.11,10.64,2.66,14.64,11.53,31.26,11.53,33.26-2.44,6.21-2.44,6.21-9.53-.22-11.75,1.33a20.68,20.68,0,0,0-4.21,4.43,13.53,13.53,0,0,1,3.66-2.63c.58-.24,1,.56,1.55.41a4.94,4.94,0,0,1,1.22-.21c1.77,0,8.43-.84,12.2-.84s18,.17,18,.17l-.38-.39a1.83,1.83,0,0,0-1.69-.52l-.83.17-2.56-.65a12,12,0,0,1-8.15-7.07l-.81-2s-10-32.38-9.75-37.2c.14-3.18,8.65-13.36,8.65-13.36s15.08-.89,21.73-2.22c2.47-.5,6.56-1.59,11.1-2.93h0c-.89,6.21-2.45,19.12-2.45,19.12a11,11,0,0,0,0,6c.88,3.55,3.77,9.1,5.32,9.54s10.64,9.54,10.64,9.54l16.64,19.95s1.1,3.33-1.56,4a7,7,0,0,0-4,2.88,5.06,5.06,0,0,1,3.16-1.31c.33,0,.62,1,1,1,5.77-.31,14.8-4.35,32.65,1.2,1.81.56,1.33-2.67,1.33-2.67a3.42,3.42,0,0,1,3.71,2.42c0-2.8-1.95-4.41-2.6-4.41-1.55,0-25.28-2.88-25.28-2.88l-31.27-34.16.53-11.76a21.44,21.44,0,0,1,1.14-6L302.36,339c2.55-.88,4.81-1.7,6.5-2.37"/><circle class="5461873d-79f4-4f6d-ae36-cc9a83288698" cx="322.46" cy="205.45" r="4.09"/><circle class="da6fd462-de4f-4cb0-b432-9278d17e9e47" cx="322.46" cy="205.45" r="2.86"/><circle cx="322.46" cy="205.45" r="1.59"/><circle class="e7ef0bf8-8621-4ac3-a10a-ac70320a9c82" cx="323.49" cy="204.43" r="0.92"/><path d="M341.12,210.18l13.2-1.22,16.81-3.62s-11,.67-14.94,1.17-15.07,3.67-15.07,3.67"/></g><g id="c61828f1-f59b-49d1-a7d6-3574b5101553" data-name="Ebene 6"><path class="2ee439ca-8ce4-41c8-885c-53394e8ef03a" d="M163.42,335.29S49.18,377.14,41.46,381,79,369.4,79,369.4s65.31-25,75.14-27.45a206.8,206.8,0,0,0,20.71-6.69Z"/><path class="7d220648-ed30-4c38-ad74-d662d7b012e4" d="M192.08,328.33S51.6,379.28,42.09,384,88.26,370,88.26,370s80.33-30.45,92.4-33.41,46.18-18.22,46.18-18.22Z"/><path class="1d793d12-982d-469a-8640-fdfae4e15dea" d="M252.81,308.4S201,329.25,149.08,347.64c-49.73,17.61-99.44,34.09-104.15,36.29-9.64,4.49,46.36-14.19,46.36-14.19s81.1-25.66,93.25-28.3,61.39-27.54,61.39-27.54Z"/><path class="d50dfc0b-89a0-4113-bc61-57275a8a9aba" d="M198,326.24S83.72,368.09,76,372s37.57-11.61,37.57-11.61,65.31-25,75.14-27.46a205.2,205.2,0,0,0,20.71-6.68Z"/><path class="ba9cdfac-30b0-41c9-8b98-6561c0594cac" d="M329.77,188.68s-19.77-6.74-34.09,8.77-13.61,21.94-13.61,21.94l-.82,1.22s3.06,0,3.36-1.21a17.43,17.43,0,0,1-1.47,4.66c-1.23,2.64-1.12,5.64-1.89,7.86s.82,1.1.82,1.1.62,4-.05,4.55,1.77.94,2.72.31.68,1.15.29,1.74l6.24-3.2L289.82,235a1.1,1.1,0,0,1-.44-1.25l.38-1.12a.94.94,0,0,1,.06-.15l.93-1.82a1.09,1.09,0,0,0-.27-1.33h0a1.08,1.08,0,0,1-.05-1.61l2.35-2.27-1.52-.44,1.1-1.45A1.09,1.09,0,0,0,292,222l-.68-.39,2.57-1.62a1.09,1.09,0,0,0,.5-.75l.36-2.28-.88-1,2.1-2.77-.84-.32a1.07,1.07,0,0,1-.66-1.31l1-3.59a1.1,1.1,0,0,0-.62-1.3l-1.11-.47,3.54-2.6a2,2,0,0,0,.21-.2l2.48-3.16a1.11,1.11,0,0,1,.5-.35L303,199l.21-.09,4.08-2.46a1.08,1.08,0,0,1,.55-.15l8.25-.1a1.12,1.12,0,0,0,.59-.19l1.71-1.15,2.33-1.45a.89.89,0,0,0,.29-.26,10.54,10.54,0,0,1,4.33-3.39A34.13,34.13,0,0,1,329.77,188.68Z"/><path class="0aa4528b-30f2-4caf-b2e1-335680c953a8" d="M308.91,226.62l1.06-.55a2.44,2.44,0,0,1,2.55.17l.84.6a3,3,0,0,0,2.92.32l1.33-.57,1.4-.54a1.28,1.28,0,0,1,1.13.08h0a3.33,3.33,0,0,0,4.13-.62h0a1.9,1.9,0,0,1,3,.25h0l.7-1.17a3.57,3.57,0,0,1,1.42-1.36l2.48-1.31.33-.2,4.06-2.74a2.18,2.18,0,0,1,1.21-.37h0a3.6,3.6,0,0,0,2.49-1l.65-.62a2.47,2.47,0,0,1,1.22-.63l.44-.09a2.87,2.87,0,0,0,1.75-1.08l.61-.79a2.51,2.51,0,0,1,1.57-.94l3.29-.57a3.79,3.79,0,0,1,.58,0H356s-5.13,1.85-8,4.51-4.65,4.44-5.37,6.28a21.38,21.38,0,0,0-1.41,4.85,7.54,7.54,0,0,0,.77,4.24c1.3,2.39,6.31,6.39,7.2,7.31s5.48,5.14,6.75,11.46,2.66,20.47-1.36,31.66c-3.44,9.6-1.81,1-1.28-1.63a.83.83,0,0,0-.54-.95h0a1.66,1.66,0,0,0-2.09,1l-1.1,3L348,281.15l-.69-2.27a2.86,2.86,0,0,1-.13-.58l-.68-4.47a.65.65,0,0,0-1.28,0l-.64,3.87a.6.6,0,0,1-.85.44h0a4.25,4.25,0,0,1-2.32-4.21l.59-5.8a8.12,8.12,0,0,0-.76-4.34l-4.33-9c-.33-.88-4.05-1.68-4.87-2.12l-2.89-5a11.9,11.9,0,0,0-1.42-1.9l-3-3.81-.67-8.26-6.32.78-7.54-2.22-1.95-2.44A2.11,2.11,0,0,1,308.91,226.62Z"/><path class="c8809542-8bb7-4135-98dd-b479fbbf6a04" d="M341.35,210.16s9.37-7.43,10.36-7.51a79.83,79.83,0,0,1,14.81.09c3.62.45,6.48.8,6.58,1.63a3.49,3.49,0,0,1-2,1c-1.22.12-10.34.58-14.94,1.17C351.9,207.07,341.35,210.16,341.35,210.16Z"/><path class="6867f289-a546-456d-a1d2-a1b4ea9d11f5" d="M341.12,210.18l8.36,2.71s3.37.06,6.52,0c1.79-.05,3.89-.52,5.58-.61a39.93,39.93,0,0,0,7.38-1,16.3,16.3,0,0,0,2.79-1s-12.21-1.4-17.43-1.22C351.63,209.06,341.12,210.18,341.12,210.18Z"/><path class="dffac72b-8396-45d4-880c-4ec6eb11d903" d="M163.82,335.26s-.66,2.88,4,2.55,14-7.32,22.61-7.65,48.24-15.31,48.24-15.31.33,2,5,0,42.58-17.63,42.58-17.63,9.31,2,17-3,26.57-23,26.57-23-1.83,1.66-3.22,0,0-7.65,0-7.65a7.51,7.51,0,0,1-6.95,3c-4.42-.66-13.07,3-20.06,2.33s-18.63-3-28.61,1.66a226.38,226.38,0,0,1-30.6,12c-9.44,2.74-21,14.63-30.6,21.29s-41.47,25.17-41.47,25.17S167.76,333.78,163.82,335.26Z"/><path class="f89385af-4b9a-4425-a6fd-520347afeff9" d="M242.41,296.23l-28.69,17.63L192.1,324.5l8.32-1.3c1.54-.24,56-22.05,57.43-22.65l9.24-8.09Z"/><path class="148b943b-408d-4046-a5b4-8a7158c43c65" d="M255.3,301.22l-51.79,21.24c11.85-1.45,62.43-23.24,62.43-23.24"/><path class="29e6b831-720f-4c00-ab4c-efa31d5577da" d="M271,297.22l-55.6,22.36c9.67,0,61.14-21.8,61.14-21.8"/><path class="1991a94a-05a1-4d5a-b0e8-0acfec5c9b69" d="M273.83,298.73l-47,18.26c16,0,59.4-19.77,59.4-19.77"/><path class="04f97c3c-a48b-419a-be70-56b59afd4f63" d="M234.57,296.59l-44.64,25.69c15.19,0,56.42-27.82,56.42-27.82"/><path class="55a6c4b4-84fc-4315-9fe2-23221cbd06b9" d="M233.06,294.76l-44.12,24.37c15.84-2.14,56.22-27.53,56.22-27.53"/><path class="4807a567-727f-4694-820e-c651a85d407b" d="M280.29,268.19C275.8,280,250.2,298.45,242.76,303.4a.79.79,0,0,0,.63,1.43c13.31-3.77,38-22.62,46.23-37.74"/><path class="4807a567-727f-4694-820e-c651a85d407b" d="M289.24,267.28c-4.49,11.79-30.09,30.26-37.53,35.21a.79.79,0,0,0,.63,1.43c13.31-3.77,37.28-22.81,46.23-37.74"/><path class="8f04f484-245c-408c-b88d-51ffef3c0567" d="M298.57,266.18C293.91,276.93,266.8,297,259.36,302a.79.79,0,0,0,.63,1.42c13.31-3.77,40.29-22.89,46.22-37.74"/><path class="4db1a2dc-9dac-47f3-890c-1ecd296bcc8e" d="M252.85,275.17c-4.43,10.86-28.14,25.13-35.45,29.69a.74.74,0,0,0,.62,1.32c13.09-3.48,37.37-20.84,45.48-34.77"/><path class="190ddbf8-9253-4bb3-a33b-8222f9c8e6b1" d="M247.88,274.37c-4.43,10.86-28.14,25.12-35.46,29.69a.73.73,0,0,0,.62,1.31c13.1-3.48,37.38-20.84,45.48-34.76"/><path class="8a6f276e-52df-468d-b1d7-9ccf89ecd5c8" d="M263.13,271.59c-4.43,10.86-29.61,27.87-36.93,32.43a.74.74,0,0,0,.62,1.32c13.09-3.48,36.68-21,45.48-34.77"/><path class="8a6f276e-52df-468d-b1d7-9ccf89ecd5c8" d="M272.3,270.57c-4.58,9.9-31.26,28.39-38.57,32.95a.73.73,0,0,0,.62,1.31c13.09-3.47,40.11-23,45.94-36.64"/><path class="89c5f5ac-bc66-4525-8dcc-70826da5dcb1" d="M306.21,265.63c-4.6,13.66-30.5,31.21-38.84,34.79-.82.35.36,2.27,1.21,2a66.29,66.29,0,0,0,16.24-6.69c14-8,25.92-21,33.54-31.41"/><path class="d70e1238-da0a-4f65-9794-eeaf151c9573" d="M318.36,264.36s-19.79,28.23-42.67,35.37c-16.56,5.16,9,2.95,21.09-2.58,18.25-8.34,39-33.52,39-33.52"/><path class="2424922b-716a-45bb-a35b-6d2ef7ff8fcd" d="M223.7,304.12l-59.88,31.14s-5.76.33,4.44-6.21,44.79-28.16,44.79-28.16"/><path class="5d68cde4-8503-4329-9c4d-ad1ab9f0ce4b" d="M226.84,288.1s-20.11,15.78-17.11,15.78,11.41-4.63,15.73-7.89c1.81-1.38,11.88-10.14,11.88-10.14"/><path class="056502bc-fca3-4284-b876-b20f93556450" d="M260.41,260s23.79-26.49,43.79-26.49c18.34,0,29.27,16.72,29.27,25.72"/></g></svg>